<svg width="205" height="54" viewBox="0 0 205 54" fill="none" xmlns="http://www.w3.org/2000/svg">
<path fill-rule="evenodd" clip-rule="evenodd" d="M97.3084 45.5196C97.4669 45.6768 97.681 45.765 97.9042 45.765C98.1274 45.765 98.3415 45.6768 98.5 45.5196C98.5806 45.4408 98.6441 45.346 98.6862 45.2414C98.7284 45.1368 98.7485 45.0246 98.7451 44.9119C98.7506 44.6748 98.6649 44.4447 98.5057 44.269C98.361 44.1119 98.1601 44.0183 97.9468 44.0086C97.7335 43.999 97.525 44.074 97.3667 44.2174C97.3459 44.2354 97.3264 44.2549 97.3084 44.2757C97.1451 44.4517 97.0569 44.6846 97.0628 44.9248C97.0614 45.0355 97.0825 45.1454 97.1247 45.2478C97.1669 45.3502 97.2294 45.443 97.3084 45.5206V45.5196Z" fill="#55209B"/>
<path fill-rule="evenodd" clip-rule="evenodd" d="M161.456 45.5194C161.532 45.5982 161.622 45.6607 161.723 45.7029C161.823 45.7451 161.932 45.7661 162.041 45.7646C162.152 45.7652 162.263 45.7434 162.366 45.7006C162.469 45.6578 162.562 45.5948 162.641 45.5154C162.719 45.4359 162.781 45.3415 162.822 45.2379C162.864 45.1342 162.884 45.0233 162.882 44.9116C162.887 44.6746 162.802 44.4444 162.642 44.2688C162.567 44.1842 162.474 44.117 162.37 44.0716C162.266 44.0263 162.154 44.0039 162.041 44.006C161.93 44.0059 161.82 44.0298 161.719 44.0762C161.618 44.1225 161.529 44.1902 161.456 44.2745C161.293 44.4505 161.205 44.6835 161.211 44.9235C161.208 45.0344 161.229 45.1447 161.271 45.2473C161.313 45.3499 161.376 45.4425 161.456 45.5194Z" fill="#55209B"/>
<path fill-rule="evenodd" clip-rule="evenodd" d="M64.1811 44.4854H59.6016V46.0922H61.1085V51.9072H62.6448V46.0922H64.1811V44.4854Z" fill="#55209B"/>
<path fill-rule="evenodd" clip-rule="evenodd" d="M65.4679 50.4975C65.4292 50.4965 65.3915 50.4851 65.3586 50.4646C65.3258 50.4441 65.299 50.4151 65.2811 50.3808C65.2277 50.2991 65.1992 50.2037 65.199 50.1061V50.0126L68.2655 48.7972V47.6876C68.2655 47.2611 68.1545 46.9337 67.9326 46.6942C67.7107 46.4546 67.3954 46.3379 66.9923 46.3379H65.1805C64.7717 46.3379 64.4445 46.4546 64.2108 46.6885C63.977 46.9224 63.8604 47.2435 63.8604 47.6468V50.4577C63.8538 50.6785 63.8794 50.899 63.9362 51.1124C64.0005 51.2784 64.0993 51.4287 64.2262 51.5533C64.3531 51.678 64.5051 51.7741 64.6721 51.8353C64.8125 51.8823 65.0231 51.9055 65.309 51.9055H68.2644V50.4975H65.4669H65.4679ZM65.2047 48.1776C65.2022 48.1287 65.2122 48.08 65.2337 48.036C65.2552 47.992 65.2875 47.9542 65.3275 47.9261C65.414 47.8578 65.5213 47.8214 65.6315 47.8229H66.5774C66.6606 47.823 66.7411 47.8518 66.8055 47.9045C66.8353 47.9272 66.8596 47.9563 66.8768 47.9896C66.8939 48.0229 66.9034 48.0596 66.9046 48.097L65.199 48.7518L65.2047 48.1776Z" fill="#55209B"/>
<path fill-rule="evenodd" clip-rule="evenodd" d="M70.5717 50.3877C70.5064 50.309 70.4713 50.2096 70.4726 50.1073V47.9857C70.4792 47.9336 70.5016 47.8848 70.5366 47.8458C70.5666 47.8036 70.6099 47.7727 70.6594 47.758H72.6922V46.3438H70.2445C69.8833 46.3438 69.6077 46.4548 69.4095 46.6825C69.2114 46.9102 69.1113 47.238 69.1175 47.6589V50.4812C69.1175 51.4338 69.5902 51.913 70.5309 51.913H72.7036V50.4977H70.8457C70.7948 50.5008 70.7437 50.4926 70.6963 50.4736C70.6489 50.4546 70.6064 50.4252 70.5717 50.3877Z" fill="#55209B"/>
<path fill-rule="evenodd" clip-rule="evenodd" d="M76.5976 46.3438H74.7397C74.331 46.3438 74.0214 46.4604 73.7938 46.6943C73.5662 46.9282 73.4609 47.2556 73.4609 47.6821V51.913H74.8156V48.1556C74.8156 47.8922 74.9616 47.7637 75.2481 47.7637H76.0949C76.3813 47.7637 76.5274 47.8922 76.5274 48.1556V51.913H77.8763V47.6821C77.8763 47.2556 77.7654 46.9282 77.5435 46.6943C77.3216 46.4604 77.0063 46.3438 76.5976 46.3438Z" fill="#55209B"/>
<path fill-rule="evenodd" clip-rule="evenodd" d="M82.8687 46.619C82.7539 46.5215 82.6207 46.4479 82.477 46.4026C82.3015 46.3581 82.1209 46.3366 81.9398 46.3386H80.1289C79.9418 46.3304 79.7546 46.352 79.5742 46.4026C79.432 46.452 79.3024 46.5318 79.1944 46.6365C79.0638 46.7613 78.9594 46.9107 78.8872 47.0762C78.815 47.2417 78.7764 47.42 78.7738 47.6005V50.6691C78.7695 50.8527 78.8061 51.0349 78.8809 51.2026C78.9557 51.3703 79.0668 51.5193 79.2062 51.6388C79.3118 51.7396 79.4371 51.8173 79.5742 51.867C79.7562 51.9074 79.9426 51.9248 80.1289 51.9186L81.9455 51.9125C82.1306 51.9179 82.3156 51.8963 82.4946 51.8484C82.6347 51.807 82.7629 51.7328 82.8687 51.6321C83.0014 51.5081 83.1067 51.3578 83.1778 51.1907C83.2489 51.0236 83.2842 50.8435 83.2816 50.6619V47.5948C83.2877 47.4119 83.2539 47.2299 83.1826 47.0614C83.1113 46.8929 83.0042 46.7419 82.8687 46.619ZM81.9223 50.1079C81.9223 50.3707 81.7819 50.4992 81.5094 50.4992H80.5537C80.2734 50.4992 80.1336 50.3707 80.1336 50.1197V48.1442C80.1336 47.8928 80.2734 47.7642 80.5537 47.7642H81.5058C81.7803 47.7642 81.9186 47.8928 81.9186 48.1442L81.9223 50.1079Z" fill="#55209B"/>
<path fill-rule="evenodd" clip-rule="evenodd" d="M84.1797 51.9132H85.5349V44.2637H84.1797V51.9132Z" fill="#55209B"/>
<path fill-rule="evenodd" clip-rule="evenodd" d="M90.5166 46.619C90.402 46.5214 90.269 46.4478 90.1255 46.4026C89.9499 46.3581 89.7693 46.3366 89.5882 46.3386H87.7774C87.5902 46.3304 87.403 46.352 87.2226 46.4026C87.0805 46.452 86.9509 46.5318 86.8428 46.6365C86.7122 46.7612 86.6077 46.9106 86.5355 47.0762C86.4633 47.2417 86.4248 47.4199 86.4222 47.6005V50.6691C86.418 50.8527 86.4546 51.0349 86.5294 51.2026C86.6042 51.3703 86.7153 51.5193 86.8547 51.6388C86.96 51.7398 87.0854 51.8175 87.2226 51.867C87.4046 51.9074 87.591 51.9248 87.7774 51.9186L89.5939 51.9125C89.7791 51.9179 89.964 51.8963 90.143 51.8484C90.2828 51.8077 90.4109 51.7343 90.5166 51.6341C90.6494 51.5103 90.7547 51.3599 90.8258 51.1928C90.8969 51.0257 90.9322 50.8456 90.9295 50.6639V47.5948C90.9356 47.4119 90.9018 47.2299 90.8305 47.0614C90.7592 46.8929 90.6521 46.7419 90.5166 46.619ZM89.5707 50.1079C89.5707 50.3707 89.4303 50.4992 89.1578 50.4992H88.2057C87.9255 50.4992 87.7851 50.3707 87.7851 50.1197V48.1442C87.7851 47.8928 87.9255 47.7642 88.2057 47.7642H89.1578C89.4324 47.7642 89.5707 47.8928 89.5707 48.1442V50.1079Z" fill="#55209B"/>
<path fill-rule="evenodd" clip-rule="evenodd" d="M95.0303 46.3438H93.2241C92.7333 46.3438 92.3829 46.4604 92.1785 46.7C91.9742 46.9396 91.8689 47.3315 91.8689 47.8809V50.6526C91.8689 51.0321 91.9974 51.3362 92.2487 51.5701C92.5 51.804 92.8267 51.9207 93.2241 51.9207H94.9761V52.1603C94.9761 52.4526 94.8418 52.5987 94.5731 52.5987H91.8281V54.0011H94.9529C95.3559 54.0011 95.6888 53.8668 95.9458 53.5978C96.2028 53.3288 96.3313 52.9844 96.3313 52.5693V47.6821C96.3313 47.2556 96.2611 46.9396 96.1249 46.7351C95.9298 46.4703 95.5675 46.3438 95.0303 46.3438ZM94.9787 50.1249C94.9787 50.3702 94.862 50.4931 94.6345 50.4931H93.5827C93.5337 50.4933 93.4851 50.4837 93.44 50.4646C93.3948 50.4455 93.354 50.4174 93.3201 50.382C93.2863 50.3482 93.2597 50.3079 93.242 50.2635C93.2242 50.2192 93.2157 50.1717 93.2168 50.1239V48.1225H93.2112C93.2105 48.0748 93.2193 48.0274 93.237 47.9831C93.2547 47.9388 93.281 47.8985 93.3144 47.8644C93.3468 47.8308 93.3858 47.8043 93.429 47.7865C93.4722 47.7687 93.5185 47.7601 93.5652 47.7611H94.6345C94.862 47.7611 94.9787 47.9015 94.9787 48.1819V50.1249Z" fill="#55209B"/>
<path d="M98.5798 46.3438H97.2422V51.913H98.5798V46.3438Z" fill="#55209B"/>
<path fill-rule="evenodd" clip-rule="evenodd" d="M102.562 46.3438H99.5071L99.5189 47.6821H102.229C102.474 47.6821 102.59 47.805 102.59 48.0559V48.1845H100.793C100.378 48.1845 100.057 48.3014 99.8291 48.5351C99.601 48.769 99.4844 49.0963 99.4844 49.5161V50.6521C99.4844 51.0491 99.6067 51.3589 99.8456 51.5815C100.085 51.804 100.424 51.9145 100.857 51.9145H102.702C102.866 51.9189 103.029 51.8884 103.18 51.8249C103.332 51.7614 103.468 51.6665 103.579 51.5464C103.813 51.2945 103.937 50.9602 103.924 50.6169V47.6578C103.924 47.2308 103.807 46.904 103.567 46.6814C103.328 46.4589 102.994 46.3438 102.562 46.3438ZM102.597 50.224C102.597 50.4404 102.474 50.5457 102.236 50.5457H101.195C101.15 50.5472 101.105 50.5396 101.063 50.5236C101.021 50.5076 100.983 50.4833 100.95 50.4522C100.918 50.4234 100.893 50.3881 100.876 50.3488C100.859 50.3094 100.85 50.2669 100.85 50.224L100.845 49.8677C100.845 49.7159 100.868 49.6163 100.915 49.5636C100.962 49.511 101.055 49.4939 101.189 49.4939H102.222C102.473 49.4939 102.595 49.6049 102.595 49.827L102.597 50.224Z" fill="#55209B"/>
<path fill-rule="evenodd" clip-rule="evenodd" d="M106.448 47.7701H108.761L108.749 46.3496H106.039C105.63 46.3496 105.316 46.4606 105.075 46.6888C104.834 46.9171 104.719 47.2264 104.719 47.6183V48.6587C104.719 48.9742 104.847 49.2488 105.099 49.4884C105.337 49.7186 105.655 49.8466 105.986 49.8452H107.149C107.237 49.8452 107.295 49.8969 107.336 49.997L107.365 50.1199V50.2397C107.365 50.4209 107.262 50.5087 107.044 50.5087H104.721V51.9173L107.479 51.9111C107.647 51.9184 107.816 51.8926 107.975 51.8352C108.124 51.7655 108.257 51.666 108.366 51.5429C108.482 51.4312 108.574 51.2968 108.637 51.148C108.699 50.9992 108.73 50.8393 108.727 50.6781V49.6635C108.729 49.3402 108.603 49.0293 108.377 48.7986C108.143 48.5528 107.874 48.4305 107.565 48.4305H106.443C106.175 48.4305 106.04 48.3427 106.047 48.1614V48.0272C106.045 47.8573 106.179 47.7701 106.448 47.7701Z" fill="#55209B"/>
<path fill-rule="evenodd" clip-rule="evenodd" d="M115.593 46.3379H113.666C113.298 46.3379 113.006 46.4603 112.778 46.7117C112.551 46.9632 112.445 47.3313 112.445 47.8224V53.9993H113.8V51.9071H115.628C115.956 51.9071 116.248 51.7786 116.506 51.5271C116.626 51.4145 116.722 51.2787 116.789 51.1278C116.855 50.9769 116.89 50.8141 116.891 50.6493V47.7681C116.891 47.3122 116.78 46.9616 116.552 46.7102C116.324 46.4587 116.011 46.3379 115.593 46.3379ZM115.535 48.0965V50.1655C115.537 50.2106 115.528 50.2554 115.51 50.2969C115.492 50.3383 115.466 50.3752 115.432 50.4051C115.364 50.4691 115.274 50.5047 115.181 50.5047H114.215C113.935 50.5047 113.794 50.37 113.794 50.0953L113.8 48.173C113.795 48.0639 113.832 47.957 113.904 47.8745C113.938 47.8368 113.981 47.8073 114.028 47.7881C114.076 47.7689 114.127 47.7605 114.178 47.7635H115.23C115.27 47.7635 115.31 47.7718 115.348 47.7879C115.385 47.8039 115.418 47.8275 115.446 47.857C115.476 47.889 115.499 47.9267 115.514 47.9678C115.53 48.0089 115.537 48.0527 115.535 48.0965Z" fill="#55209B"/>
<path fill-rule="evenodd" clip-rule="evenodd" d="M120.868 46.3438H117.813L117.819 47.6821H120.535C120.78 47.6821 120.896 47.805 120.896 48.0559V48.1845H119.097C118.684 48.1845 118.363 48.3014 118.134 48.5351C117.906 48.769 117.789 49.0963 117.789 49.5161V50.6521C117.789 51.0491 117.912 51.3589 118.15 51.5815C118.389 51.804 118.728 51.9145 119.161 51.9145H121.006C121.17 51.919 121.333 51.8884 121.484 51.825C121.636 51.7615 121.772 51.6665 121.883 51.5464C121.999 51.4218 122.089 51.2756 122.149 51.1161C122.208 50.9566 122.235 50.787 122.228 50.6169V47.6578C122.228 47.2308 122.112 46.904 121.872 46.6814C121.633 46.4589 121.3 46.3438 120.868 46.3438ZM120.897 50.224C120.897 50.4404 120.774 50.5457 120.536 50.5457H119.496C119.451 50.5472 119.406 50.5396 119.364 50.5236C119.322 50.5076 119.283 50.4833 119.251 50.4522C119.219 50.4234 119.194 50.3881 119.176 50.3488C119.159 50.3094 119.151 50.2669 119.151 50.224L119.145 49.8677C119.145 49.7159 119.168 49.6163 119.215 49.5636C119.262 49.511 119.355 49.4939 119.49 49.4939H120.522C120.773 49.4939 120.896 49.6049 120.896 49.827L120.897 50.224Z" fill="#55209B"/>
<path fill-rule="evenodd" clip-rule="evenodd" d="M123.141 47.7875V51.9131H124.496V48.0504C124.495 48.0079 124.506 47.9661 124.528 47.9296C124.55 47.8931 124.581 47.8634 124.619 47.8438C124.711 47.7849 124.819 47.7562 124.928 47.7617H125.444V46.3418H124.521C123.602 46.3439 123.141 46.823 123.141 47.7875Z" fill="#55209B"/>
<path fill-rule="evenodd" clip-rule="evenodd" d="M128.923 46.3438H125.869L125.874 47.6821H128.585C128.83 47.6821 128.946 47.805 128.946 48.0559V48.1845H127.152C126.738 48.1845 126.416 48.3014 126.188 48.5351C125.961 48.769 125.844 49.0964 125.844 49.5161V50.6521C125.844 51.0491 125.967 51.3589 126.205 51.5815C126.443 51.804 126.783 51.9145 127.215 51.9145H129.062C129.226 51.9189 129.389 51.8883 129.54 51.8248C129.691 51.7614 129.827 51.6665 129.939 51.5464C130.055 51.4217 130.145 51.2754 130.204 51.1159C130.263 50.9565 130.29 50.7869 130.283 50.617V47.6578C130.283 47.2308 130.167 46.904 129.927 46.6814C129.688 46.4589 129.356 46.3438 128.923 46.3438ZM128.952 50.224C128.952 50.4404 128.83 50.5457 128.591 50.5457H127.551C127.506 50.5472 127.462 50.5397 127.419 50.5236C127.377 50.5076 127.339 50.4833 127.306 50.4523C127.275 50.4234 127.249 50.3881 127.232 50.3487C127.215 50.3094 127.207 50.2669 127.207 50.224L127.201 49.8678C127.201 49.716 127.225 49.6163 127.271 49.5636C127.318 49.511 127.412 49.4939 127.546 49.4939H128.578C128.829 49.4939 128.952 49.6049 128.952 49.827L128.952 50.224Z" fill="#55209B"/>
<path fill-rule="evenodd" clip-rule="evenodd" d="M138.136 46.619C138.023 46.5226 137.892 46.4492 137.75 46.4026C137.575 46.3581 137.394 46.3366 137.213 46.3386H135.402C135.215 46.3304 135.028 46.352 134.848 46.4026C134.705 46.452 134.576 46.5318 134.468 46.6365C134.337 46.7613 134.233 46.9107 134.161 47.0762C134.088 47.2417 134.05 47.42 134.047 47.6005V50.6691C134.043 50.8527 134.08 51.0349 134.154 51.2026C134.229 51.3703 134.34 51.5193 134.48 51.6388C134.585 51.7396 134.71 51.8173 134.848 51.867C135.03 51.9074 135.216 51.9248 135.402 51.9186L137.213 51.9125C137.398 51.9179 137.583 51.8963 137.762 51.8484C137.902 51.8071 138.03 51.7329 138.136 51.6321C138.269 51.5082 138.374 51.3579 138.445 51.1908C138.516 51.0237 138.552 50.8435 138.549 50.6619V47.5948C138.555 47.4119 138.521 47.2299 138.45 47.0614C138.379 46.8929 138.271 46.7419 138.136 46.619ZM137.19 50.1079C137.19 50.3707 137.05 50.4992 136.777 50.4992H135.824C135.544 50.4992 135.403 50.3707 135.403 50.1197V48.1442C135.403 47.8928 135.544 47.7642 135.824 47.7642H136.776C137.051 47.7642 137.189 47.8928 137.189 48.1442L137.19 50.1079Z" fill="#55209B"/>
<path fill-rule="evenodd" clip-rule="evenodd" d="M146.412 44.4912L144.87 49.7625L143.334 44.4912H141.734L143.814 51.0895C144.024 51.7029 144.381 52.0065 144.877 52.0065C145.393 52.0065 145.742 51.7029 145.94 51.0895L148.025 44.4912H146.412Z" fill="#55209B"/>
<path fill-rule="evenodd" clip-rule="evenodd" d="M151.006 46.3438H147.954L147.96 47.6821H150.67C150.916 47.6821 151.031 47.805 151.031 48.0559V48.1845H149.238C148.825 48.1845 148.504 48.3014 148.274 48.5351C148.046 48.769 147.93 49.0963 147.93 49.5161V50.6521C147.93 51.0491 148.053 51.3589 148.291 51.5815C148.529 51.804 148.869 51.9145 149.301 51.9145H151.147C151.311 51.919 151.474 51.8884 151.625 51.825C151.776 51.7615 151.912 51.6665 152.024 51.5464C152.14 51.4218 152.23 51.2756 152.289 51.1161C152.348 50.9566 152.375 50.787 152.369 50.6169V47.6578C152.369 47.2308 152.252 46.904 152.013 46.6814C151.773 46.4589 151.438 46.3438 151.006 46.3438ZM151.035 50.224C151.035 50.4404 150.913 50.5457 150.674 50.5457H149.634C149.589 50.5485 149.544 50.5416 149.502 50.5254C149.459 50.5093 149.421 50.4844 149.389 50.4522C149.357 50.4234 149.332 50.3881 149.315 50.3488C149.298 50.3094 149.289 50.2669 149.29 50.224L149.284 49.8677C149.284 49.7159 149.307 49.6163 149.354 49.5636C149.401 49.511 149.494 49.4939 149.629 49.4939H150.661C150.912 49.4939 151.034 49.6049 151.034 49.827L151.035 50.224Z" fill="#55209B"/>
<path fill-rule="evenodd" clip-rule="evenodd" d="M153.289 47.7875V51.9131H154.644V48.0504C154.644 48.0079 154.655 47.9662 154.676 47.9297C154.698 47.8932 154.73 47.8635 154.767 47.8438C154.859 47.785 154.967 47.7563 155.077 47.7617H155.593V46.3418H154.67C153.75 46.3439 153.289 46.823 153.289 47.7875Z" fill="#55209B"/>
<path fill-rule="evenodd" clip-rule="evenodd" d="M160.534 50.4975H157.731C157.692 50.4964 157.654 50.485 157.622 50.4645C157.589 50.444 157.562 50.4151 157.544 50.3808C157.491 50.299 157.462 50.2036 157.462 50.1061V50.0126L160.529 48.7972V47.6876C160.529 47.2611 160.418 46.9337 160.196 46.6942C159.974 46.4546 159.658 46.3379 159.255 46.3379H157.445C157.036 46.3379 156.709 46.4546 156.475 46.6885C156.242 46.9224 156.125 47.2435 156.125 47.6468V50.4577C156.125 50.7443 156.148 50.9663 156.207 51.1124C156.271 51.2784 156.37 51.4288 156.497 51.5534C156.624 51.6781 156.776 51.7742 156.943 51.8353C157.083 51.8823 157.293 51.9055 157.579 51.9055H160.535L160.534 50.4975ZM157.456 48.1776C157.459 48.1289 157.471 48.0813 157.493 48.0379C157.516 47.9946 157.547 47.9564 157.585 47.9261C157.671 47.8578 157.778 47.8213 157.888 47.8229H158.829C158.912 47.823 158.992 47.8518 159.057 47.9045C159.087 47.9272 159.111 47.9563 159.128 47.9896C159.145 48.0229 159.155 48.0596 159.156 48.097L157.45 48.7518L157.456 48.1776Z" fill="#55209B"/>
<path fill-rule="evenodd" clip-rule="evenodd" d="M161.39 52.182C161.39 52.4567 161.255 52.595 160.993 52.595H160.484V53.9974H161.32C161.769 53.9974 162.12 53.8745 162.365 53.6236C162.611 53.3726 162.733 53.0159 162.733 52.5537V46.3438H161.392L161.39 52.182Z" fill="#55209B"/>
<path fill-rule="evenodd" clip-rule="evenodd" d="M167.73 46.619C167.617 46.5215 167.486 46.4479 167.344 46.4026C167.169 46.3581 166.988 46.3366 166.807 46.3386H164.996C164.809 46.3304 164.622 46.352 164.441 46.4026C164.299 46.452 164.17 46.5318 164.062 46.6365C163.931 46.7612 163.827 46.9106 163.754 47.0762C163.682 47.2417 163.644 47.4199 163.641 47.6005V50.6691C163.637 50.8527 163.673 51.0351 163.748 51.2028C163.823 51.3705 163.934 51.5195 164.073 51.6388C164.179 51.7398 164.304 51.8175 164.441 51.867C164.623 51.9074 164.81 51.9248 164.996 51.9186L166.807 51.9125C166.992 51.9179 167.177 51.8963 167.356 51.8484C167.496 51.8069 167.624 51.7327 167.73 51.6321C167.862 51.5082 167.968 51.3579 168.039 51.1908C168.11 51.0237 168.145 50.8435 168.143 50.6619V47.5948C168.149 47.412 168.115 47.23 168.043 47.0615C167.972 46.893 167.865 46.742 167.73 46.619ZM166.789 50.1079C166.789 50.3707 166.649 50.4992 166.377 50.4992H165.424C165.144 50.4992 165.004 50.3707 165.004 50.1197V48.1442C165.004 47.8928 165.144 47.7642 165.424 47.7642H166.377C166.651 47.7642 166.789 47.8928 166.789 48.1442V50.1079Z" fill="#55209B"/>
<path fill-rule="evenodd" clip-rule="evenodd" d="M196.049 29.2438C199.643 26.7907 204.426 22.5015 204.426 18.8654C204.424 6.63959 174.994 0 174.994 0L171.484 12.0203C171.484 12.0203 198.124 13.8792 198.124 22.1173C198.124 25.0414 196.396 27.0122 194.507 28.2933C186.907 23.9922 176.333 23.0529 176.333 23.0529L173.856 31.7171C173.856 31.7171 195.652 33.4004 195.652 39.4105C195.652 45.4207 174.824 51.9116 174.824 51.9116C174.824 51.9116 202.094 46.9305 202.094 37.733C202.095 33.3931 199.544 31.5927 196.049 29.2438Z" fill="#55209B"/>
<path fill-rule="evenodd" clip-rule="evenodd" d="M48.9372 21.0214C49.2528 21.0215 49.5654 20.9593 49.857 20.8385C50.1487 20.7177 50.4137 20.5406 50.6369 20.3173C50.8601 20.094 51.0372 19.8289 51.158 19.5371C51.2788 19.2453 51.341 18.9326 51.341 18.6168C51.3407 17.9792 51.0873 17.3677 50.6365 16.917C50.1857 16.4662 49.5745 16.2131 48.9372 16.2132H45.0151V14.0581C45.0152 13.7101 44.9467 13.3655 44.8137 13.044C44.6806 12.7225 44.4856 12.4304 44.2397 12.1844C43.9938 11.9383 43.7019 11.7431 43.3806 11.6099C43.0593 11.4767 42.715 11.4082 42.3672 11.4082C41.6648 11.4082 40.9911 11.6874 40.4945 12.1843C39.9978 12.6813 39.7188 13.3553 39.7188 14.0581V33.6918C39.7188 34.5396 40.0554 35.3527 40.6545 35.9522C41.2537 36.5517 42.0663 36.8885 42.9137 36.8885H48.6936C49.0615 36.8884 49.4254 36.8117 49.762 36.6632C50.0987 36.5148 50.4007 36.2977 50.6489 36.026C50.8971 35.7543 51.086 35.4338 51.2035 35.085C51.3211 34.7362 51.3647 34.3667 51.3317 34.0001C51.2151 32.67 49.9657 31.5888 48.6317 31.5888H45.8449C45.6242 31.5888 45.4126 31.5011 45.2565 31.345C45.1004 31.1889 45.0127 30.9772 45.0125 30.7564V21.0214H48.9372Z" fill="#55209B"/>
<path fill-rule="evenodd" clip-rule="evenodd" d="M52.9219 21.7755V31.3251C52.9219 34.3978 55.6616 36.8887 59.0408 36.8887H65.456C68.8351 36.8887 71.5744 34.3978 71.5744 31.3251V21.7755C71.5744 18.7027 68.8351 16.2119 65.456 16.2119H59.0408C55.6616 16.2135 52.9219 18.7027 52.9219 21.7755ZM63.4764 31.589H61.0158C59.4872 31.589 58.2481 30.4623 58.2481 29.0723V23.5382C58.2481 22.1482 59.4867 21.0216 61.0158 21.0216H63.4764C65.0049 21.0216 66.244 22.1482 66.244 23.5382V29.0703C66.2461 30.4644 65.007 31.589 63.4764 31.589Z" fill="#55209B"/>
<path fill-rule="evenodd" clip-rule="evenodd" d="M34.6342 16.2061C34.2841 16.2061 33.9373 16.2751 33.6139 16.4091C33.2904 16.5432 32.9965 16.7398 32.7489 16.9875C32.5013 17.2352 32.305 17.5294 32.171 17.853C32.0371 18.1767 31.9682 18.5236 31.9682 18.874V31.5888H27.5115C27.207 31.5888 26.9054 31.5288 26.624 31.4122C26.3426 31.2956 26.087 31.1246 25.8716 30.9092C25.6563 30.6937 25.4854 30.4379 25.3689 30.1564C25.2523 29.8748 25.1924 29.5731 25.1924 29.2684V18.874C25.1924 18.1664 24.9114 17.4878 24.4114 16.9875C23.9113 16.4871 23.2331 16.2061 22.5259 16.2061C21.8187 16.2061 21.1404 16.4871 20.6404 16.9875C20.1403 17.4878 19.8594 18.1664 19.8594 18.874V31.2145C19.8599 32.7195 20.4579 34.1627 21.5217 35.2267C22.5856 36.2908 24.0282 36.8885 25.5324 36.8885H34.1058C34.9531 36.8885 35.7658 36.5517 36.3649 35.9522C36.9641 35.3527 37.3007 34.5396 37.3007 33.6918V18.8729C37.3004 18.1655 37.0194 17.4872 36.5193 16.9871C36.0193 16.487 35.3412 16.2061 34.6342 16.2061Z" fill="#55209B"/>
<path fill-rule="evenodd" clip-rule="evenodd" d="M13.9053 16.2061H4.84014C3.55645 16.2061 2.32535 16.7163 1.41764 17.6245C0.509942 18.5326 0 19.7644 0 21.0488L0 34.3987C0 35.7025 1.00167 36.8255 2.30318 36.8859C2.63046 36.9018 2.95754 36.851 3.26461 36.7366C3.57168 36.6222 3.85233 36.4466 4.08955 36.2205C4.32677 35.9943 4.51562 35.7223 4.64464 35.421C4.77366 35.1196 4.84017 34.7952 4.84014 34.4674V30.6465H11.6238V34.2211C11.6237 34.5714 11.6926 34.9183 11.8265 35.242C11.9605 35.5657 12.1569 35.8598 12.4044 36.1076C12.652 36.3553 12.9459 36.5518 13.2694 36.6859C13.5929 36.82 13.9396 36.889 14.2897 36.889C14.9969 36.889 15.6752 36.6079 16.1752 36.1076C16.6753 35.6073 16.9562 34.9287 16.9562 34.2211V19.2597C16.9564 18.8587 16.8775 18.4617 16.7243 18.0912C16.571 17.7207 16.3463 17.3841 16.063 17.1005C15.7797 16.8169 15.4433 16.592 15.0731 16.4385C14.7028 16.285 14.306 16.2061 13.9053 16.2061ZM4.84014 25.3452V23.1921C4.84014 22.6162 5.06875 22.0639 5.4757 21.6567C5.88264 21.2494 6.4346 21.0205 7.01017 21.0204H11.6238V25.3452H4.84014Z" fill="#55209B"/>
<path fill-rule="evenodd" clip-rule="evenodd" d="M89.5654 19.5784C90.7122 19.576 91.8476 19.8061 92.9031 20.2547C93.9586 20.7034 94.9123 21.3614 95.7066 22.189L99.8129 18.11C98.4876 16.7552 96.9063 15.6776 95.161 14.94C93.4156 14.2024 91.5411 13.8195 89.6465 13.8135C89.6201 13.8135 89.5949 13.8135 89.568 13.8135C87.5988 13.8093 85.65 14.2121 83.8437 14.9969C82.0374 15.7816 80.4127 16.9313 79.0713 18.3738C77.0035 20.5923 75.705 23.4184 75.3685 26.4332C75.0319 29.448 75.6751 32.4911 77.2027 35.1114C78.4376 37.2177 80.191 38.9725 82.2958 40.2085C84.4007 41.4445 86.7869 42.1206 89.2269 42.1723C89.3404 42.1754 89.454 42.177 89.5675 42.177C90.0536 42.177 90.5351 42.1527 91.0089 42.1052C91.0159 42.1059 91.023 42.1059 91.03 42.1052C94.128 41.7953 97.0399 40.4807 99.3221 38.3618L95.4599 34.0421C94.6179 34.8516 93.6184 35.479 92.5237 35.8852C91.4289 36.2915 90.2622 36.468 89.0963 36.4036C87.9304 36.3392 86.7903 36.0354 85.7468 35.5111C84.7033 34.9868 83.7789 34.2531 83.0311 33.3559C83.0311 33.3528 83.0264 33.3512 83.0254 33.3481C81.7724 31.8465 81.0869 29.9519 81.0886 27.9958C81.0897 23.3477 84.8889 19.5784 89.5654 19.5784Z" fill="#55209B"/>
<path fill-rule="evenodd" clip-rule="evenodd" d="M116.014 13.8096C108.122 13.8096 101.727 20.1564 101.727 27.9934C101.727 35.8304 108.118 42.1772 116.014 42.1772C123.909 42.1772 130.309 35.8262 130.309 27.9934C130.309 20.1605 123.905 13.8096 116.014 13.8096ZM116.014 36.4092C111.335 36.4092 107.538 32.6399 107.538 27.9929C107.538 23.3458 111.335 19.5765 116.014 19.5765C120.693 19.5765 124.489 23.3458 124.489 27.9929C124.489 32.6399 120.693 36.4092 116.014 36.4092Z" fill="#55209B"/>
<path fill-rule="evenodd" clip-rule="evenodd" d="M151.141 32.5628L134.664 13.8037V42.177H140.485V29.6765L151.134 42.1682V42.1842L151.141 42.1765L151.141 42.177V42.176L161.791 29.6837V42.1842H167.611V13.8109L151.141 32.5628Z" fill="#55209B"/>
</svg>
