<svg width="231" height="61" viewBox="0 0 231 61" fill="none" xmlns="http://www.w3.org/2000/svg">
<path fill-rule="evenodd" clip-rule="evenodd" d="M109.958 51.4206C110.137 51.5982 110.379 51.6978 110.631 51.6978C110.883 51.6978 111.125 51.5982 111.304 51.4206C111.395 51.3316 111.467 51.2246 111.515 51.1064C111.562 50.9883 111.585 50.8615 111.581 50.7341C111.587 50.4663 111.49 50.2064 111.31 50.008C111.147 49.8305 110.92 49.7248 110.679 49.7138C110.438 49.7029 110.202 49.7877 110.023 49.9496C110 49.97 109.978 49.992 109.958 50.0155C109.773 50.2144 109.673 50.4775 109.68 50.7487C109.678 50.8738 109.702 50.998 109.75 51.1137C109.798 51.2293 109.868 51.3342 109.958 51.4218V51.4206Z" fill="white"/>
<path fill-rule="evenodd" clip-rule="evenodd" d="M182.441 51.4207C182.526 51.5098 182.629 51.5803 182.743 51.628C182.856 51.6757 182.978 51.6994 183.102 51.6977C183.228 51.6984 183.353 51.6738 183.469 51.6254C183.585 51.5771 183.691 51.5059 183.78 51.4161C183.868 51.3264 183.938 51.2198 183.985 51.1027C184.032 50.9855 184.054 50.8602 184.052 50.7341C184.058 50.4663 183.961 50.2064 183.782 50.008C183.696 49.9124 183.591 49.8365 183.474 49.7852C183.357 49.734 183.23 49.7087 183.102 49.7111C182.976 49.711 182.852 49.738 182.738 49.7904C182.624 49.8427 182.523 49.9192 182.441 50.0144C182.257 50.2133 182.158 50.4764 182.164 50.7476C182.161 50.8728 182.184 50.9974 182.232 51.1133C182.28 51.2292 182.351 51.3339 182.441 51.4207Z" fill="white"/>
<path fill-rule="evenodd" clip-rule="evenodd" d="M72.5264 50.2529H67.3516V52.0681H69.0543V58.6369H70.7903V52.0681H72.5264V50.2529Z" fill="white"/>
<path fill-rule="evenodd" clip-rule="evenodd" d="M73.9739 57.0445C73.9301 57.0434 73.8875 57.0305 73.8504 57.0074C73.8133 56.9842 73.783 56.9515 73.7628 56.9127C73.7025 56.8204 73.6703 56.7126 73.67 56.6024V56.4968L77.1351 55.1238V53.8704C77.1351 53.3886 77.0097 53.0188 76.7589 52.7482C76.5082 52.4775 76.1519 52.3457 75.6965 52.3457H73.649C73.1872 52.3457 72.8175 52.4775 72.5533 52.7417C72.2892 53.006 72.1574 53.3688 72.1574 53.8243V56.9996C72.15 57.249 72.1789 57.4981 72.2431 57.7392C72.3157 57.9266 72.4274 58.0964 72.5708 58.2372C72.7142 58.378 72.886 58.4866 73.0747 58.5558C73.2333 58.6089 73.4712 58.6351 73.7943 58.6351H77.1339V57.0445H73.9727H73.9739ZM73.6765 54.4239C73.6737 54.3687 73.6849 54.3136 73.7092 54.264C73.7335 54.2143 73.77 54.1716 73.8152 54.1398C73.913 54.0627 74.0342 54.0215 74.1587 54.0232H75.2276C75.3216 54.0233 75.4126 54.0559 75.4854 54.1153C75.519 54.141 75.5465 54.1739 75.5659 54.2115C75.5852 54.2491 75.596 54.2906 75.5973 54.3329L73.67 55.0725L73.6765 54.4239Z" fill="white"/>
<path fill-rule="evenodd" clip-rule="evenodd" d="M79.7452 56.9198C79.6714 56.8309 79.6317 56.7186 79.6332 56.6031V54.2064C79.6407 54.1476 79.6659 54.0924 79.7055 54.0483C79.7394 54.0007 79.7883 53.9658 79.8443 53.9492H82.1413V52.3516H79.3754C78.9672 52.3516 78.6558 52.477 78.4319 52.7342C78.208 52.9914 78.0949 53.3618 78.1019 53.8372V57.0253C78.1019 58.1015 78.636 58.6428 79.6991 58.6428H82.1541V57.044H80.0548C79.9972 57.0476 79.9395 57.0383 79.886 57.0168C79.8324 56.9953 79.7843 56.9622 79.7452 56.9198Z" fill="white"/>
<path fill-rule="evenodd" clip-rule="evenodd" d="M86.5561 52.3516H84.4567C83.9949 52.3516 83.645 52.4834 83.3878 52.7476C83.1307 53.0118 83.0117 53.3816 83.0117 53.8634V58.6428H84.5425V54.3983C84.5425 54.1008 84.7075 53.9556 85.0311 53.9556H85.9881C86.3117 53.9556 86.4767 54.1008 86.4767 54.3983V58.6428H88.0011V53.8634C88.0011 53.3816 87.8757 53.0118 87.6249 52.7476C87.3742 52.4834 87.0179 52.3516 86.5561 52.3516Z" fill="white"/>
<path fill-rule="evenodd" clip-rule="evenodd" d="M93.6432 52.6624C93.5135 52.5522 93.363 52.4691 93.2006 52.418C93.0023 52.3677 92.7982 52.3434 92.5936 52.3456H90.5473C90.3359 52.3364 90.1243 52.3608 89.9205 52.418C89.7598 52.4737 89.6134 52.5639 89.4913 52.6822C89.3438 52.8231 89.2258 52.9919 89.1442 53.1789C89.0626 53.3659 89.019 53.5672 89.016 53.7712V57.2376C89.0112 57.445 89.0526 57.6508 89.1371 57.8403C89.2216 58.0297 89.3472 58.198 89.5047 58.3329C89.6239 58.4468 89.7655 58.5346 89.9205 58.5908C90.1261 58.6364 90.3368 58.656 90.5473 58.6491L92.6 58.6421C92.8092 58.6482 93.0182 58.6238 93.2205 58.5698C93.3788 58.523 93.5237 58.4392 93.6432 58.3254C93.7932 58.1854 93.9121 58.0155 93.9925 57.8268C94.0728 57.638 94.1128 57.4345 94.1098 57.2294V53.7648C94.1167 53.5581 94.0785 53.3525 93.998 53.1621C93.9174 52.9718 93.7964 52.8012 93.6432 52.6624ZM92.5738 56.6035C92.5738 56.9004 92.4151 57.0457 92.1072 57.0457H91.0273C90.7106 57.0457 90.5526 56.9004 90.5526 56.617V54.3854C90.5526 54.1013 90.7106 53.9561 91.0273 53.9561H92.1032C92.4134 53.9561 92.5697 54.1013 92.5697 54.3854L92.5738 56.6035Z" fill="white"/>
<path fill-rule="evenodd" clip-rule="evenodd" d="M95.125 58.6432H96.6563V50.002H95.125V58.6432Z" fill="white"/>
<path fill-rule="evenodd" clip-rule="evenodd" d="M102.283 52.6624C102.154 52.5521 102.003 52.469 101.841 52.418C101.643 52.3677 101.439 52.3434 101.234 52.3456H99.188C98.9765 52.3364 98.7649 52.3608 98.5611 52.418C98.4005 52.4737 98.254 52.5639 98.1319 52.6822C97.9843 52.823 97.8662 52.9919 97.7846 53.1788C97.703 53.3658 97.6595 53.5672 97.6566 53.7712V57.2376C97.6518 57.445 97.6932 57.6508 97.7777 57.8403C97.8622 58.0297 97.9878 58.198 98.1453 58.3329C98.2644 58.447 98.406 58.5348 98.5611 58.5908C98.7668 58.6364 98.9774 58.656 99.188 58.6491L101.241 58.6421C101.45 58.6482 101.659 58.6238 101.861 58.5698C102.019 58.5238 102.164 58.4408 102.283 58.3277C102.433 58.1878 102.552 58.0179 102.633 57.8292C102.713 57.6404 102.753 57.4369 102.75 57.2317V53.7648C102.757 53.5581 102.718 53.3525 102.638 53.1622C102.557 52.9718 102.436 52.8012 102.283 52.6624ZM101.214 56.6035C101.214 56.9004 101.056 57.0457 100.748 57.0457H99.672C99.3553 57.0457 99.1967 56.9004 99.1967 56.617V54.3854C99.1967 54.1013 99.3553 53.9561 99.672 53.9561H100.748C101.058 53.9561 101.214 54.1013 101.214 54.3854V56.6035Z" fill="white"/>
<path fill-rule="evenodd" clip-rule="evenodd" d="M107.38 52.3516H105.339C104.785 52.3516 104.389 52.4834 104.158 52.754C103.927 53.0247 103.808 53.4674 103.808 54.088V57.219C103.808 57.6477 103.953 57.9913 104.237 58.2555C104.521 58.5197 104.89 58.6515 105.339 58.6515H107.319V58.9222C107.319 59.2523 107.167 59.4174 106.863 59.4174H103.762V61.0015H107.293C107.748 61.0015 108.124 60.8499 108.415 60.546C108.705 60.2421 108.85 59.8531 108.85 59.3841V53.8634C108.85 53.3816 108.771 53.0247 108.617 52.7937C108.397 52.4945 107.987 52.3516 107.38 52.3516ZM107.322 56.6229C107.322 56.9 107.19 57.0388 106.933 57.0388H105.744C105.689 57.0391 105.634 57.0282 105.583 57.0066C105.532 56.985 105.486 56.9533 105.448 56.9134C105.409 56.8752 105.379 56.8296 105.359 56.7795C105.339 56.7294 105.33 56.6757 105.331 56.6217V54.3609H105.325C105.324 54.307 105.334 54.2535 105.354 54.2035C105.374 54.1534 105.403 54.1078 105.441 54.0693C105.478 54.0314 105.522 54.0014 105.571 53.9814C105.619 53.9613 105.672 53.9515 105.725 53.9527H106.933C107.19 53.9527 107.322 54.1113 107.322 54.428V56.6229Z" fill="white"/>
<path d="M111.394 52.3516H109.883V58.6428H111.394V52.3516Z" fill="white"/>
<path fill-rule="evenodd" clip-rule="evenodd" d="M115.888 52.3516H112.436L112.449 53.8634H115.511C115.789 53.8634 115.92 54.0022 115.92 54.2857V54.4309H113.888C113.42 54.4309 113.057 54.5629 112.8 54.827C112.542 55.0912 112.41 55.461 112.41 55.9352V57.2184C112.41 57.6669 112.548 58.0169 112.818 58.2683C113.088 58.5197 113.472 58.6445 113.961 58.6445H116.046C116.231 58.6495 116.416 58.615 116.587 58.5433C116.757 58.4716 116.911 58.3643 117.037 58.2286C117.301 57.9441 117.441 57.5665 117.427 57.1787V53.836C117.427 53.3536 117.295 52.9844 117.024 52.733C116.753 52.4816 116.376 52.3516 115.888 52.3516ZM115.927 56.7349C115.927 56.9792 115.789 57.0982 115.519 57.0982H114.343C114.292 57.0999 114.242 57.0914 114.194 57.0733C114.147 57.0552 114.103 57.0278 114.066 56.9927C114.03 56.96 114.002 56.9202 113.982 56.8758C113.963 56.8314 113.953 56.7833 113.954 56.7349L113.947 56.3324C113.947 56.1609 113.974 56.0483 114.027 55.9888C114.08 55.9294 114.185 55.9101 114.337 55.9101H115.503C115.787 55.9101 115.925 56.0355 115.925 56.2863L115.927 56.7349Z" fill="white"/>
<path fill-rule="evenodd" clip-rule="evenodd" d="M120.282 53.963H122.896L122.882 52.3584H119.82C119.358 52.3584 119.003 52.4838 118.731 52.7416C118.459 52.9994 118.328 53.3488 118.328 53.7915V54.9668C118.328 55.3232 118.473 55.6335 118.757 55.9041C119.026 56.1641 119.386 56.3088 119.76 56.3072H121.074C121.173 56.3072 121.239 56.3655 121.285 56.4786L121.318 56.6175V56.7528C121.318 56.9575 121.202 57.0567 120.955 57.0567H118.331V58.6478L121.447 58.6408C121.638 58.6491 121.828 58.62 122.008 58.5551C122.176 58.4764 122.326 58.364 122.45 58.225C122.581 58.0987 122.685 57.9469 122.755 57.7788C122.825 57.6108 122.86 57.4301 122.858 57.248V56.1019C122.86 55.7367 122.718 55.3855 122.462 55.1249C122.198 54.8472 121.894 54.709 121.544 54.709H120.277C119.974 54.709 119.822 54.6098 119.829 54.4051V54.2535C119.827 54.0616 119.978 53.963 120.282 53.963Z" fill="white"/>
<path fill-rule="evenodd" clip-rule="evenodd" d="M130.62 52.3457H128.442C128.026 52.3457 127.696 52.4839 127.439 52.768C127.181 53.052 127.062 53.4679 127.062 54.0226V61.0003H128.594V58.6369H130.659C131.029 58.6369 131.359 58.4917 131.651 58.2076C131.787 58.0805 131.895 57.927 131.97 57.7566C132.045 57.5861 132.085 57.4022 132.086 57.2161V53.9614C132.086 53.4463 131.961 53.0503 131.703 52.7662C131.445 52.4822 131.091 52.3457 130.62 52.3457ZM130.554 54.3323V56.6695C130.556 56.7204 130.546 56.7711 130.526 56.8179C130.506 56.8647 130.475 56.9065 130.437 56.9402C130.36 57.0124 130.259 57.0527 130.154 57.0527H129.062C128.745 57.0527 128.587 56.9005 128.587 56.5902L128.594 54.4187C128.588 54.2954 128.63 54.1747 128.71 54.0815C128.75 54.039 128.798 54.0056 128.851 53.9839C128.905 53.9622 128.963 53.9527 129.021 53.9561H130.209C130.255 53.9561 130.3 53.9655 130.342 53.9836C130.384 54.0018 130.422 54.0284 130.453 54.0617C130.487 54.0979 130.513 54.1405 130.53 54.1869C130.548 54.2334 130.556 54.2828 130.554 54.3323Z" fill="white"/>
<path fill-rule="evenodd" clip-rule="evenodd" d="M136.581 52.3516H133.128L133.135 53.8634H136.204C136.481 53.8634 136.613 54.0022 136.613 54.2857V54.4309H134.58C134.113 54.4309 133.75 54.5629 133.491 54.827C133.233 55.0912 133.102 55.461 133.102 55.9352V57.2184C133.102 57.6669 133.24 58.0169 133.51 58.2683C133.779 58.5197 134.163 58.6445 134.652 58.6445H136.737C136.922 58.6495 137.106 58.615 137.277 58.5433C137.448 58.4716 137.602 58.3643 137.728 58.2286C137.859 58.0879 137.961 57.9227 138.028 57.7426C138.095 57.5624 138.125 57.3708 138.118 57.1787V53.836C138.118 53.3536 137.986 52.9844 137.715 52.733C137.445 52.4816 137.069 52.3516 136.581 52.3516ZM136.613 56.7349C136.613 56.9792 136.475 57.0982 136.205 57.0982H135.03C134.979 57.0999 134.928 57.0914 134.881 57.0733C134.833 57.0552 134.79 57.0277 134.753 56.9927C134.717 56.96 134.689 56.9202 134.669 56.8758C134.65 56.8314 134.64 56.7833 134.64 56.7349L134.634 56.3324C134.634 56.1609 134.66 56.0483 134.713 55.9888C134.766 55.9294 134.871 55.9101 135.024 55.9101H136.19C136.474 55.9101 136.612 56.0355 136.612 56.2863L136.613 56.7349Z" fill="white"/>
<path fill-rule="evenodd" clip-rule="evenodd" d="M139.152 53.9828V58.6431H140.684V54.2797C140.683 54.2317 140.695 54.1845 140.72 54.1433C140.744 54.102 140.78 54.0685 140.822 54.0464C140.927 53.9798 141.049 53.9474 141.172 53.9536H141.755V52.3496H140.712C139.674 52.3519 139.152 52.8932 139.152 53.9828Z" fill="white"/>
<path fill-rule="evenodd" clip-rule="evenodd" d="M145.687 52.3516H142.235L142.241 53.8634H145.304C145.581 53.8634 145.712 54.0022 145.712 54.2857V54.4309H143.686C143.217 54.4309 142.854 54.563 142.597 54.827C142.339 55.0912 142.207 55.461 142.207 55.9352V57.2184C142.207 57.6669 142.346 58.0169 142.615 58.2683C142.885 58.5197 143.269 58.6445 143.757 58.6445H145.843C146.029 58.6494 146.213 58.6149 146.384 58.5432C146.555 58.4715 146.708 58.3643 146.835 58.2286C146.965 58.0878 147.067 57.9225 147.134 57.7424C147.2 57.5622 147.231 57.3707 147.224 57.1787V53.836C147.224 53.3536 147.092 52.9844 146.821 52.733C146.551 52.4816 146.175 52.3516 145.687 52.3516ZM145.72 56.7349C145.72 56.9793 145.581 57.0983 145.312 57.0983H144.137C144.086 57.0999 144.035 57.0914 143.988 57.0733C143.94 57.0552 143.897 57.0278 143.86 56.9927C143.824 56.96 143.795 56.9202 143.776 56.8758C143.757 56.8313 143.747 56.7833 143.748 56.7349L143.741 56.3324C143.741 56.1609 143.768 56.0484 143.82 55.9889C143.872 55.9294 143.979 55.9101 144.13 55.9101H145.297C145.58 55.9101 145.719 56.0355 145.719 56.2863L145.72 56.7349Z" fill="white"/>
<path fill-rule="evenodd" clip-rule="evenodd" d="M156.097 52.6624C155.969 52.5535 155.821 52.4705 155.662 52.418C155.463 52.3677 155.259 52.3434 155.055 52.3456H153.008C152.797 52.3364 152.585 52.3608 152.381 52.418C152.221 52.4737 152.074 52.5639 151.952 52.6822C151.805 52.8231 151.687 52.9919 151.605 53.1789C151.524 53.3659 151.48 53.5672 151.477 53.7712V57.2376C151.472 57.445 151.514 57.6508 151.598 57.8403C151.683 58.0297 151.808 58.198 151.966 58.3329C152.085 58.4468 152.226 58.5346 152.381 58.5908C152.587 58.6364 152.798 58.656 153.008 58.6491L155.055 58.6421C155.264 58.6482 155.473 58.6238 155.675 58.5698C155.833 58.5231 155.978 58.4393 156.097 58.3254C156.247 58.1854 156.366 58.0156 156.447 57.8268C156.527 57.6381 156.567 57.4345 156.564 57.2294V53.7648C156.571 53.5581 156.532 53.3525 156.452 53.1622C156.371 52.9718 156.25 52.8012 156.097 52.6624ZM155.028 56.6035C155.028 56.9004 154.87 57.0457 154.562 57.0457H153.485C153.168 57.0457 153.009 56.9004 153.009 56.617V54.3854C153.009 54.1013 153.168 53.9561 153.485 53.9561H154.561C154.871 53.9561 155.027 54.1013 155.027 54.3854L155.028 56.6035Z" fill="white"/>
<path fill-rule="evenodd" clip-rule="evenodd" d="M165.442 50.2588L163.7 56.2134L161.964 50.2588H160.156L162.506 57.7125C162.744 58.4054 163.147 58.7484 163.707 58.7484C164.29 58.7484 164.684 58.4054 164.908 57.7125L167.265 50.2588H165.442Z" fill="white"/>
<path fill-rule="evenodd" clip-rule="evenodd" d="M170.637 52.3516H167.188L167.195 53.8634H170.257C170.534 53.8634 170.665 54.0022 170.665 54.2857V54.4309H168.638C168.172 54.4309 167.809 54.5629 167.55 54.827C167.292 55.0912 167.16 55.461 167.16 55.9352V57.2184C167.16 57.6669 167.299 58.0169 167.568 58.2683C167.838 58.5197 168.221 58.6445 168.71 58.6445H170.795C170.981 58.6495 171.165 58.615 171.336 58.5433C171.507 58.4716 171.661 58.3643 171.787 58.2286C171.918 58.0879 172.019 57.9227 172.086 57.7426C172.153 57.5624 172.184 57.3708 172.176 57.1787V53.836C172.176 53.3536 172.045 52.9844 171.774 52.733C171.503 52.4816 171.125 52.3516 170.637 52.3516ZM170.669 56.7349C170.669 56.9792 170.531 57.0982 170.261 57.0982H169.086C169.035 57.1014 168.984 57.0936 168.936 57.0754C168.889 57.0571 168.845 57.029 168.809 56.9927C168.773 56.96 168.745 56.9202 168.725 56.8758C168.706 56.8314 168.696 56.7833 168.697 56.7349L168.69 56.3324C168.69 56.1609 168.717 56.0483 168.77 55.9888C168.823 55.9294 168.928 55.9101 169.08 55.9101H170.246C170.53 55.9101 170.668 56.0355 170.668 56.2863L170.669 56.7349Z" fill="white"/>
<path fill-rule="evenodd" clip-rule="evenodd" d="M173.219 53.9828V58.6431H174.75V54.2797C174.749 54.2317 174.762 54.1846 174.786 54.1434C174.811 54.1022 174.846 54.0686 174.889 54.0464C174.993 53.9799 175.115 53.9475 175.239 53.9536H175.822V52.3496H174.779C173.74 52.3519 173.219 52.8932 173.219 53.9828Z" fill="white"/>
<path fill-rule="evenodd" clip-rule="evenodd" d="M181.408 57.0445H178.241C178.197 57.0433 178.154 57.0304 178.117 57.0073C178.08 56.9841 178.049 56.9515 178.029 56.9127C177.969 56.8203 177.937 56.7125 177.937 56.6024V56.4968L181.402 55.1238V53.8704C181.402 53.3886 181.276 53.0188 181.026 52.7482C180.775 52.4775 180.419 52.3457 179.963 52.3457H177.917C177.456 52.3457 177.086 52.4775 176.822 52.7417C176.558 53.006 176.426 53.3688 176.426 53.8243V56.9996C176.426 57.3233 176.452 57.5741 176.518 57.7392C176.591 57.9267 176.702 58.0966 176.846 58.2374C176.989 58.3782 177.161 58.4868 177.35 58.5558C177.508 58.6089 177.746 58.6351 178.069 58.6351H181.409L181.408 57.0445ZM177.93 54.4239C177.933 54.3689 177.947 54.3151 177.972 54.2661C177.997 54.2171 178.032 54.1741 178.075 54.1398C178.173 54.0626 178.294 54.0214 178.418 54.0232H179.481C179.575 54.0233 179.666 54.0559 179.739 54.1153C179.772 54.141 179.8 54.1739 179.819 54.2115C179.838 54.2491 179.849 54.2906 179.851 54.3329L177.923 55.0725L177.93 54.4239Z" fill="white"/>
<path fill-rule="evenodd" clip-rule="evenodd" d="M182.367 58.9466C182.367 59.2569 182.215 59.4132 181.918 59.4132H181.344V60.9974H182.288C182.796 60.9974 183.192 60.8586 183.469 60.5751C183.747 60.2917 183.885 59.8886 183.885 59.3666V52.3516H182.369L182.367 58.9466Z" fill="white"/>
<path fill-rule="evenodd" clip-rule="evenodd" d="M189.527 52.6624C189.4 52.5522 189.252 52.4691 189.091 52.418C188.893 52.3677 188.689 52.3434 188.484 52.3456H186.438C186.227 52.3364 186.015 52.3608 185.811 52.418C185.651 52.4737 185.504 52.5639 185.382 52.6822C185.234 52.823 185.116 52.9919 185.035 53.1788C184.953 53.3658 184.91 53.5672 184.907 53.7712V57.2376C184.902 57.445 184.943 57.6509 185.027 57.8404C185.112 58.0299 185.238 58.1982 185.395 58.3329C185.514 58.447 185.656 58.5348 185.811 58.5908C186.017 58.6364 186.227 58.656 186.438 58.6491L188.484 58.6421C188.693 58.6482 188.902 58.6238 189.105 58.5698C189.263 58.5228 189.407 58.4391 189.527 58.3254C189.677 58.1854 189.796 58.0156 189.876 57.8268C189.957 57.6381 189.997 57.4345 189.993 57.2294V53.7648C190 53.5582 189.962 53.3526 189.881 53.1622C189.801 52.9719 189.68 52.8013 189.527 52.6624ZM188.464 56.6035C188.464 56.9004 188.306 57.0457 187.998 57.0457H186.922C186.605 57.0457 186.447 56.9004 186.447 56.617V54.3854C186.447 54.1013 186.605 53.9561 186.922 53.9561H187.998C188.308 53.9561 188.464 54.1013 188.464 54.3854V56.6035Z" fill="white"/>
<path fill-rule="evenodd" clip-rule="evenodd" d="M221.535 33.0349C225.596 30.2638 231.001 25.4185 231.001 21.3111C230.999 7.50033 197.743 0 197.743 0L193.777 13.5786C193.777 13.5786 223.88 15.6784 223.88 24.9846C223.88 28.2876 221.927 30.514 219.792 31.9611C211.204 27.1024 199.256 26.0415 199.256 26.0415L196.457 35.8288C196.457 35.8288 221.087 37.7303 221.087 44.5196C221.087 51.3089 197.551 58.6412 197.551 58.6412C197.551 58.6412 228.366 53.0144 228.366 42.6245C228.367 37.7221 225.484 35.6882 221.535 33.0349Z" fill="white"/>
<path fill-rule="evenodd" clip-rule="evenodd" d="M55.2995 23.7461C55.6562 23.7462 56.0094 23.676 56.3389 23.5395C56.6685 23.403 56.9679 23.203 57.2202 22.9507C57.4724 22.6985 57.6725 22.399 57.809 22.0694C57.9455 21.7398 58.0158 21.3866 58.0158 21.0298C58.0155 20.3095 57.7291 19.6188 57.2197 19.1096C56.7104 18.6005 56.0196 18.3145 55.2995 18.3147H50.8676V15.8801C50.8677 15.487 50.7903 15.0978 50.64 14.7346C50.4897 14.3714 50.2693 14.0415 49.9914 13.7635C49.7136 13.4855 49.3837 13.265 49.0207 13.1146C48.6576 12.9641 48.2685 12.8867 47.8755 12.8867C47.0818 12.8867 46.3206 13.2021 45.7594 13.7635C45.1981 14.3248 44.8828 15.0862 44.8828 15.8801V38.0591C44.8828 39.0168 45.2632 39.9353 45.9402 40.6125C46.6173 41.2897 47.5356 41.6701 48.4931 41.6701H55.0243C55.44 41.6701 55.8512 41.5835 56.2316 41.4157C56.612 41.248 56.9533 41.0028 57.2337 40.6959C57.5142 40.3889 57.7276 40.0269 57.8604 39.6329C57.9933 39.2388 58.0426 38.8215 58.0053 38.4073C57.8735 36.9048 56.4617 35.6834 54.9543 35.6834H51.8053C51.5559 35.6834 51.3168 35.5844 51.1404 35.4081C50.964 35.2317 50.8648 34.9926 50.8647 34.7432V23.7461H55.2995Z" fill="white"/>
<path fill-rule="evenodd" clip-rule="evenodd" d="M59.8008 24.5983V35.3859C59.8008 38.857 62.8967 41.6707 66.7151 41.6707H73.9641C77.7826 41.6707 80.8779 38.857 80.8779 35.3859V24.5983C80.8779 21.1272 77.7826 18.3135 73.9641 18.3135H66.7151C62.8967 18.3152 59.8008 21.1272 59.8008 24.5983ZM71.7272 35.684H68.9468C67.2195 35.684 65.8194 34.4112 65.8194 32.8411V26.5895C65.8194 25.0194 67.2189 23.7467 68.9468 23.7467H71.7272C73.4545 23.7467 74.8546 25.0194 74.8546 26.5895V32.8387C74.8569 34.4136 73.4568 35.684 71.7272 35.684Z" fill="white"/>
<path fill-rule="evenodd" clip-rule="evenodd" d="M39.1368 18.3066C38.7411 18.3066 38.3493 18.3846 37.9838 18.5361C37.6183 18.6875 37.2861 18.9095 37.0064 19.1894C36.7266 19.4693 36.5048 19.8015 36.3534 20.1671C36.202 20.5328 36.1242 20.9247 36.1242 21.3204V35.6836H31.0882C30.7441 35.6836 30.4033 35.6158 30.0854 35.484C29.7674 35.3523 29.4785 35.1592 29.2352 34.9158C28.9918 34.6724 28.7988 34.3834 28.6671 34.0654C28.5354 33.7474 28.4676 33.4065 28.4676 33.0623V21.3204C28.4676 20.5211 28.1501 19.7546 27.5851 19.1894C27.02 18.6242 26.2536 18.3066 25.4545 18.3066C24.6554 18.3066 23.889 18.6242 23.3239 19.1894C22.7589 19.7546 22.4414 20.5211 22.4414 21.3204V35.2607C22.442 36.9608 23.1177 38.5911 24.3198 39.7931C25.5219 40.9951 27.1521 41.6703 28.8519 41.6703H38.5396C39.4971 41.6703 40.4154 41.2898 41.0924 40.6126C41.7695 39.9354 42.1499 39.0169 42.1499 38.0592V21.3193C42.1495 20.5202 41.832 19.7539 41.2669 19.1889C40.7019 18.624 39.9357 18.3066 39.1368 18.3066Z" fill="white"/>
<path fill-rule="evenodd" clip-rule="evenodd" d="M15.7128 18.3066H5.46929C4.01874 18.3066 2.62761 18.883 1.60192 19.9089C0.576227 20.9348 0 22.3263 0 23.7772L0 38.8577C0 40.3305 1.13188 41.5991 2.60256 41.6674C2.97238 41.6853 3.34198 41.6279 3.68897 41.4987C4.03595 41.3695 4.35308 41.1711 4.62114 40.9157C4.88919 40.6602 5.10259 40.353 5.24838 40.0125C5.39417 39.6721 5.46933 39.3056 5.46929 38.9353V34.6191H13.1347V38.6571C13.1346 39.0528 13.2125 39.4447 13.3638 39.8104C13.5152 40.176 13.7371 40.5082 14.0168 40.7881C14.2966 41.068 14.6287 41.29 14.9942 41.4414C15.3598 41.5929 15.7515 41.6709 16.1472 41.6709C16.9463 41.6709 17.7127 41.3533 18.2778 40.7881C18.8428 40.223 19.1603 39.4564 19.1603 38.6571V21.7561C19.1604 21.3032 19.0714 20.8547 18.8982 20.4362C18.725 20.0176 18.4711 19.6374 18.1509 19.317C17.8308 18.9967 17.4507 18.7426 17.0323 18.5692C16.614 18.3959 16.1656 18.3066 15.7128 18.3066ZM5.46929 28.6306V26.1983C5.46929 25.5478 5.72762 24.9239 6.18746 24.4638C6.6473 24.0038 7.27101 23.7452 7.9214 23.7451H13.1347V28.6306H5.46929Z" fill="white"/>
<path fill-rule="evenodd" clip-rule="evenodd" d="M101.211 22.1158C102.507 22.1131 103.79 22.373 104.983 22.8798C106.175 23.3867 107.253 24.13 108.151 25.0648L112.791 20.457C111.293 18.9266 109.506 17.7093 107.534 16.8761C105.562 16.0429 103.444 15.6103 101.303 15.6036C101.273 15.6036 101.244 15.6036 101.214 15.6036C98.989 15.5988 96.7868 16.0539 94.7458 16.9403C92.7047 17.8268 90.8688 19.1255 89.3531 20.755C87.0164 23.2611 85.5492 26.4536 85.1689 29.8592C84.7885 33.2648 85.5153 36.7024 87.2415 39.6625C88.6369 42.0418 90.6182 44.024 92.9967 45.4203C95.3752 46.8166 98.0715 47.5803 100.829 47.6387C100.957 47.6422 101.085 47.644 101.214 47.644C101.763 47.644 102.307 47.6166 102.842 47.5629C102.85 47.5637 102.858 47.5637 102.866 47.5629C106.367 47.2128 109.657 45.7278 112.236 43.3342L107.872 38.4545C106.92 39.3689 105.791 40.0777 104.554 40.5366C103.317 40.9955 101.999 41.1949 100.681 41.1221C99.3637 41.0494 98.0753 40.7062 96.8962 40.1139C95.7171 39.5216 94.6726 38.6929 93.8275 37.6793C93.8275 37.6758 93.8223 37.6741 93.8211 37.6706C92.4052 35.9743 91.6306 33.8341 91.6326 31.6244C91.6337 26.3737 95.9268 22.1158 101.211 22.1158Z" fill="white"/>
<path fill-rule="evenodd" clip-rule="evenodd" d="M131.09 15.5996C122.172 15.5996 114.945 22.7692 114.945 31.6222C114.945 40.4751 122.168 47.6447 131.09 47.6447C140.012 47.6447 147.243 40.4704 147.243 31.6222C147.243 22.7739 140.007 15.5996 131.09 15.5996ZM131.09 41.1289C125.803 41.1289 121.513 36.871 121.513 31.6216C121.513 26.3721 125.802 22.1142 131.09 22.1142C136.377 22.1142 140.667 26.3721 140.667 31.6216C140.667 36.871 136.377 41.1289 131.09 41.1289Z" fill="white"/>
<path fill-rule="evenodd" clip-rule="evenodd" d="M170.787 36.7847L152.168 15.5938V47.6453H158.745V33.5242L170.779 47.6353V47.6534L170.787 47.6447L170.787 47.6453V47.6441L182.821 33.5324V47.6534H189.398V15.6019L170.787 36.7847Z" fill="white"/>
</svg>
